<svg xmlns="http://www.w3.org/2000/svg" viewBox="0 0 32 32" fill="none" aria-hidden="true">
  <!-- Carrocería -->
  <path d="M4 20h24v4a2 2 0 0 1-2 2H6a2 2 0 0 1-2-2v-4z" fill="#2563eb"/>
  <path d="M7 14l3-6h12l3 6H7z" fill="#3b82f6"/>
  <!-- Ventanas -->
  <path d="M10.5 10l-2 4h7v-4h-5z" fill="#bfdbfe"/>
  <path d="M16.5 10v4h7l-2-4h-5z" fill="#93c5fd"/>
  <!-- Ruedas -->
  <circle cx="9.5" cy="24" r="3" fill="#1e293b"/>
  <circle cx="9.5" cy="24" r="1.3" fill="#64748b"/>
  <circle cx="22.5" cy="24" r="3" fill="#1e293b"/>
  <circle cx="22.5" cy="24" r="1.3" fill="#64748b"/>
  <!-- Luces -->
  <rect x="4" y="18" width="3" height="2" rx="0.5" fill="#fde047"/>
  <rect x="25" y="18" width="3" height="2" rx="0.5" fill="#ef4444"/>
</svg>
